<svg width="24" height="24" viewBox="0 0 24 24" fill="none" xmlns="http://www.w3.org/2000/svg">
    <path d="M5.23832 14.2838L4.41557 17.3553L1.40844 17.4189C0.509752 15.752 0 13.8449 0 11.8182C0 9.85851 0.476605 8.01044 1.32142 6.38318H1.32207L3.99925 6.874L5.17202 9.53512C4.92657 10.2507 4.79278 11.0189 4.79278 11.8182C4.79287 12.6858 4.95002 13.517 5.23832 14.2838Z" fill="#FBBB00"/>
    <path d="M23.43 9.61035C23.5657 10.3253 23.6365 11.0636 23.6365 11.8181C23.6365 12.6642 23.5475 13.4896 23.3781 14.2857C22.8028 16.9948 21.2995 19.3604 19.217 21.0344L19.2164 21.0337L15.8443 20.8617L15.3671 17.8824C16.7489 17.0721 17.8288 15.8039 18.3976 14.2857H12.0781V9.61035H18.4898H23.43Z" fill="#518EF8"/>
    <path d="M19.2165 21.0338L19.2171 21.0344C17.1918 22.6623 14.6191 23.6364 11.8184 23.6364C7.31778 23.6364 3.40481 21.1208 1.40869 17.4189L5.23857 14.2838C6.2366 16.9474 8.80609 18.8436 11.8184 18.8436C13.1132 18.8436 14.3262 18.4935 15.3671 17.8825L19.2165 21.0338Z" fill="#28B446"/>
    <path d="M19.3616 2.72077L15.533 5.85517C14.4557 5.18181 13.1823 4.79283 11.8181 4.79283C8.73752 4.79283 6.11998 6.77593 5.17194 9.53506L1.32194 6.38311H1.32129C3.28819 2.59091 7.25051 0 11.8181 0C14.6856 0 17.3148 1.02144 19.3616 2.72077Z" fill="#F14336"/>
</svg>
